<?xml version="1.0" encoding="utf-8"?>
<!-- Generator: Adobe Illustrator 16.0.0, SVG Export Plug-In . SVG Version: 6.00 Build 0)  -->
<!DOCTYPE svg PUBLIC "-//W3C//DTD SVG 1.1//EN" "http://www.w3.org/Graphics/SVG/1.1/DTD/svg11.dtd">
<svg version="1.1" id="图层_1" xmlns="http://www.w3.org/2000/svg" xmlns:xlink="http://www.w3.org/1999/xlink" x="0px" y="0px"
	 width="366px" height="36.6px" viewBox="0 0 366 36.6" enable-background="new 0 0 366 36.6" xml:space="preserve">
<g>
	<g>
		<path fill="#FFFFFF" d="M38.146,16.736c0,0-0.819-0.924-2.912-1.749S22.256,8.393,22.256,8.393l-0.521,0.923l9.486,6.483
			c-0.011-0.003-0.022-0.007-0.033-0.01c0,0,3.438,2.759,1.394,5.262c-0.24-0.43-0.627-1.061-1.178-1.76
			c-1.555-1.978-1.836-1.918-3.908-3.087c-4.416-2.492-10.083-4.969-12.324-5.982c-1.334-0.652-3.195-1.566-4.366-2.154
			C9.579,7.451,9.764,8.937,9.764,8.937s-0.167,4.059,0.335,6.864c0.128,0.986,0.759,5.264,2.174,6.824c0,0,0.866,1.383,2.535,2.088
			c1.332,0.563,2.286,1.023,6.638,0.246c1.53-0.273,1.967-0.369,1.967-0.369s-0.027,1.061-1.967,1.848
			c-2.722,1.105-6.023,2.096-6.023,2.096s-5.513,1.926-6.392-3.451c-0.519-3.172-1.333-9.949-1.333-9.949s-0.4-0.012-1.018,0.04
			L5.45,30.588c0,0-0.767,3.443,1.805,4.865c2.072,1.145,4.998-0.139,4.998-0.139l15.41-8.311l0.368-0.189
			c0.001,0,1.035-3.48-2.546-6.428c-0.071,0.322-0.239,0.57-0.45,0.791c-0.003-0.004-0.006-0.008-0.009-0.012
			c0,0-2.031,2.141-4.521,2.027c-2.727-0.125-3.511-0.902-4.831-2.1c-0.898-0.816-2.184-4.754-0.374-6.362c0,0,1.31-0.912,3.319,0
			c0.142,0.064,0.285,0.131,0.431,0.199c0.618,0.342,1.267,0.859,1.082,1.479c-0.291,0.98-1.289,0.644-1.992,0.118
			c0,0-0.863,2.369,1.759,2.933c1.748,0.377,3.323-0.718,3.5-2.221c0.89,0.509,1.729,1.005,2.448,1.434
			c1.372,0.818,2.243,1.365,3.033,3.4c0.618,1.592,1.049,3.625,1.049,3.625l3.773-1.953l0.002,0.006l3.025-1.807
			C38.22,21.182,39.904,19.619,38.146,16.736"/>
		<path fill="#FFFFFF" d="M7.734,10.916l0.466-4.668c0,0,0.234-1.751,2.217-1.634c1.984,0.116,8.87,3.15,8.87,3.15l0.546-0.813
			l-0.154-0.154l-7.978-5.685c0,0-2.555-1.405-4.764,0.804c0,0-0.976,1.027-0.976,2.979l0.956,6.02H7.734z"/>
		<path fill="#FFFFFF" d="M7.734,10.857c0,0.226-0.184,0.408-0.409,0.408c-0.226,0-0.408-0.183-0.408-0.408s0.183-0.409,0.408-0.409
			C7.551,10.448,7.734,10.632,7.734,10.857"/>
		<path fill="#FFFFFF" d="M22.57,8.898c0,0.289-0.235,0.524-0.525,0.524c-0.29,0-0.525-0.235-0.525-0.524
			c0-0.291,0.235-0.525,0.525-0.525C22.335,8.373,22.57,8.607,22.57,8.898"/>
		<path fill="#FFFFFF" d="M19.95,7.254c0,0.29-0.235,0.525-0.525,0.525c-0.29,0-0.525-0.235-0.525-0.525s0.235-0.525,0.525-0.525
			C19.714,6.729,19.95,6.964,19.95,7.254"/>
		<path fill="#FFFFFF" d="M7.722,15.269c0,0.29-0.235,0.525-0.525,0.525s-0.525-0.235-0.525-0.525s0.235-0.525,0.525-0.525
			S7.722,14.979,7.722,15.269"/>
		<line fill="#FFFFFF" x1="22.307" y1="8.443" x2="21.786" y2="9.366"/>
		<path fill="#FFFFFF" d="M50.637,35.85h-3.332V9.586c0-0.739,0.6-1.338,1.339-1.338h3.332v26.264
			C51.975,35.25,51.376,35.85,50.637,35.85"/>
		<path fill="#FFFFFF" d="M58.987,35.85h-3.332v-9.646c0-0.74,0.6-1.338,1.339-1.338h3.331v9.646
			C60.325,35.25,59.727,35.85,58.987,35.85"/>
		<path fill="#FFFFFF" d="M75.132,35.85h3.331v-9.646c0-0.74-0.6-1.338-1.339-1.338h-3.331v9.646
			C73.793,35.25,74.392,35.85,75.132,35.85"/>
		<path fill="#FFFFFF" d="M56.994,23.553h3.332V2.1c0-0.739-0.6-1.338-1.339-1.338h-3.331v21.453
			C55.656,22.955,56.255,23.553,56.994,23.553"/>
		<path fill="#FFFFFF" d="M80.525,17.616h-3.331V8.248h3.331c0.739,0,1.339,0.599,1.339,1.338v6.691
			C81.864,17.016,81.265,17.616,80.525,17.616"/>
		<path fill="#FFFFFF" d="M51.975,12.262V8.248H77.85c2.218,0,4.015,1.797,4.015,4.014H51.975z"/>
		<path fill="#FFFFFF" d="M53.69,13.601L53.69,13.601h28.174c0,2.217-1.797,4.016-4.015,4.016H57.705
			C55.487,17.616,53.69,15.817,53.69,13.601"/>
		<path fill="#FFFFFF" d="M55.655,19.539L55.655,19.539h26.209c0,2.217-1.797,4.016-4.015,4.016H59.67
			C57.453,23.555,55.655,21.756,55.655,19.539"/>
		<path fill="#FFFFFF" d="M60.325,28.879v-4.014h14.123c2.217,0,4.015,1.797,4.015,4.014H60.325z"/>
		<path fill="#FFFFFF" d="M77.808,35.85v-4.016h4.057v2.869c0,0.633-0.514,1.146-1.147,1.146H77.808z"/>
		<path fill="#FFFFFF" d="M55.655,2.978L55.655,2.978h26.209c0,2.218-1.797,4.016-4.015,4.016H59.67
			C57.453,6.993,55.655,5.195,55.655,2.978"/>
		<path fill="#FFFFFF" d="M122.068,18.843h-3.331V0.762h3.331c0.74,0,1.34,0.599,1.34,1.338v15.404
			C123.408,18.243,122.809,18.843,122.068,18.843"/>
		<path fill="#FFFFFF" d="M115.983,26.398v-4.016h7.425c0,2.219-1.798,4.016-4.016,4.016H115.983z"/>
		<path fill="#FFFFFF" d="M105.299,35.85h3.331V11.928c0-0.739-0.599-1.338-1.338-1.338h-3.332v23.922
			C103.96,35.25,104.56,35.85,105.299,35.85"/>
		<path fill="#FFFFFF" d="M107.976,35.85v-4.016h4.057v2.873c0,0.631-0.512,1.143-1.144,1.143H107.976z"/>
		<path fill="#FFFFFF" d="M92.173,15.692v-4.016h5.368c0,2.218-1.798,4.016-4.016,4.016H92.173z"/>
		<path fill="#FFFFFF" d="M108.17,11.809V7.794h10.567c0,2.218-1.798,4.015-4.016,4.015H108.17z"/>
		<path fill="#FFFFFF" d="M103.96,4.776L103.96,4.776c0-2.218,1.798-4.016,4.016-4.016h11.417c2.218,0,4.016,1.798,4.016,4.016
			H103.96z"/>
		<path fill="#FFFFFF" d="M103.96,18.843v-4.016h19.448c0,2.218-1.798,4.016-4.016,4.016H103.96z"/>
		<path fill="#FFFFFF" d="M92.173,24.391v-4.016h5.368c0,2.219-1.798,4.016-4.016,4.016H92.173z"/>
		<rect x="93.519" y="2.978" fill="#FFFFFF" width="8.692" height="4.016"/>
		<path fill="#FFFFFF" d="M92.173,33.842v-4.016h10.038c0,2.219-1.798,4.016-4.016,4.016H92.173z"/>
		<path fill="#FFFFFF" d="M93.519,33.842h-4.67V4.316c0-0.739,0.599-1.339,1.339-1.339h3.331V33.842z"/>
		<path fill="#FFFFFF" d="M107.292,24.865h-3.332V2.1c0-0.739,0.6-1.338,1.339-1.338h3.331v22.764
			C108.63,24.264,108.031,24.865,107.292,24.865"/>
		<path fill="#FFFFFF" d="M100.872,33.842h-3.331V4.316c0-0.739,0.599-1.339,1.338-1.339h3.332v29.526
			C102.211,33.242,101.611,33.842,100.872,33.842"/>
		<path fill="#FFFFFF" d="M123.368,35.85l-10.061-19.486l-4.15,2.142l7.571,14.665c0.85,1.646,2.548,2.68,4.399,2.68H123.368z"/>
	</g>
	<g>
		<path fill="#FFFFFF" d="M152.593,29.076c-0.741-1.064-1.871-2.646-3.064-4.064c-1.13,2.969-2.904,5.582-5.26,8.26l-2.517-2.42
			c3.743-4.002,5.614-7.066,6.034-11.582h-5.131v-3.195h5.228l0.032-5.292h-1.065c-0.612,1.679-1.226,3.228-1.839,4.228
			l-2.774-1.517c1.839-3.356,2.968-6.97,3.646-10.1l2.969,0.742c-0.161,0.775-0.517,2.033-0.936,3.453h6.034v3.193h-3.228
			l-0.032,5.292h3.388v3.195h-3.388c-0.032,0.773-0.129,1.547-0.258,2.289c1.484,1.582,3.259,3.711,4.194,5.002L152.593,29.076z
			 M170.855,28.754v3.26h-17.617v-3.26h5.163c-0.419-1.451-1.71-4.098-2.807-5.613l2.839-1.484c0.871,1.291,2.227,3.936,2.904,5.549
			l-2.775,1.549h3.614c1.129-2.162,2.646-5.549,3.322-7.355l2.937,1.451c-0.613,1.582-1.774,4.033-2.71,5.904H170.855z
			 M170.017,8.46h-15.487V5.169h15.487V8.46z M168.952,21.398h-13.938v-10.1h13.938V21.398z M165.822,14.202h-7.775v4.195h7.775
			V14.202z"/>
		<path fill="#FFFFFF" d="M184.087,22.623c-0.936-1.064-1.936-2.031-2.968-2.967v13.195h-3.001V21.141
			c-0.871,1-1.774,1.967-2.808,2.967l-1.71-2.871c3.259-2.871,5.518-6.065,6.969-9.324h-5.582V8.718h3.582
			c-0.354-1.42-0.968-3.517-1.322-4.549l2.969-0.484c0.354,1.129,0.967,3.388,1.387,5.033h2.387v3.194
			c-0.741,1.548-1.418,3.001-2.29,4.388c1.388,1.13,2.549,2.194,3.872,3.517V5.008h14.713v18.293h-3.032V8.04h-8.616v15.325h-3.064
			v-3.193L184.087,22.623z M202.866,25.496c-0.033,1.193-0.162,2.258-0.323,3.258c-0.42,2.871-0.968,3.646-3.84,3.646h-2.968
			c-2.485,0-3.355-0.969-3.355-3.646V25.27c-1.583,3.064-4.228,5.646-8.357,8.324l-1.969-2.871
			c7.228-4.291,8.713-7.551,9.067-14.842c0.097-1.064,0.129-5.291,0.129-6.324l3.13,0.129c0,1.065-0.098,5.421-0.098,6.55
			c-0.031,1.774-0.16,3.323-0.451,4.774l1.517,0.066v6.516c0,1.42,0.258,1.646,1.613,1.646h1.129c1.388,0,1.452-0.193,1.613-1.58
			c0.13-0.936,0.259-2.131,0.259-3.291L202.866,25.496z"/>
		<path fill="#FFFFFF" d="M211.579,19.914c-0.612,1.807-2.097,4.807-3.484,7.162l-2.42-1.549c1.291-1.871,2.55-4.711,3.323-6.937
			L211.579,19.914z M220.098,20.43c-2.322,6.486-6.194,10.002-12.487,13.002l-1.902-2.773c4.032-1.84,6.678-3.486,8.613-5.711
			h-1.838v-7.711h-6.356v-2.969h2.064V6.266l2.711,0.13v7.872h2.193V3.717l2.679,0.129v3.71h3.355v2.904h-3.355v3.808h3.807v2.969
			h-4.259v6.42c0.903-1.291,1.613-2.775,2.291-4.582L220.098,20.43z M227.81,21.43c0,5.26-2.098,8.842-8.905,12.035l-1.549-2.84
			c6.581-2.936,7.743-5.678,7.743-9.291v-6.195l2.711,0.129V21.43z M224.293,10.912l0.677-2.839h-5.323V5.104h14.132v2.969h-5.872
			l-0.711,2.839h5.422v15.131h-2.775V13.88h-6.743v12.163h-2.742V10.912H224.293z M228.713,25.496
			c1.871,1.258,4.291,3.227,6.001,4.84l-1.549,2.838c-1.677-1.902-3.969-3.807-6.001-5.387L228.713,25.496z"/>
		<path fill="#FFFFFF" d="M239.879,5.071h9.519v24.265c0,2.451-0.87,2.904-3.484,3.162l-1.742,0.162l-0.871-2.971l1.678-0.129
			c1.419-0.096,1.549-0.258,1.549-1.451v-5.229h-4.001c-0.355,3.582-1.162,6.873-2.808,10.262l-2.678-1.451
			c1.936-3.518,2.839-5.229,2.839-14.455V5.071z M246.526,20.076v-4.679h-3.808v3.129c0,0.517,0,1.032-0.032,1.55H246.526z
			 M242.719,12.558h3.808V7.976h-3.808V12.558z M266.628,30.109l-1.807,2.711c-2.259-1.453-4.099-2.936-5.518-4.453
			c-1.194,1.258-2.679,2.549-4.421,3.873l-1.097-1.355v2h-2.84V5.039h13.487c0,0.774-0.161,3.808-0.259,5.453
			c-0.096,2.679-0.967,3.194-3.71,3.356l-2.646,0.161l-0.968-2.872l2.421-0.13c1.517-0.096,1.838-0.354,1.936-1.29l0.129-1.71h-7.55
			v7.519h11.002v2.839c-0.646,2.838-1.806,5.322-3.613,7.775C262.691,27.529,264.434,28.723,266.628,30.109 M253.786,29.076
			c1.42-1.031,2.613-2.064,3.646-3.098c-1.29-1.902-2.258-3.969-3.064-6.549l2.452-0.936c0.645,2.291,1.419,3.969,2.42,5.389
			c1.321-1.809,2.194-3.582,2.742-5.518h-8.195V29.076z"/>
		<path fill="#FFFFFF" d="M298.573,16.978l-0.742,3.161c-5.904-1.129-10.261-2.354-13.972-4.161
			c-3.774,1.775-8.26,3.194-13.841,4.581l-1.001-3.161c4.421-0.903,8.292-1.969,11.552-3.227c-1.582-1.033-3.065-2.129-4.453-3.517
			c-1.354,1.258-2.839,2.452-4.453,3.581l-1.742-2.259c3.356-2.42,6.97-6.259,8.744-8.97l2.808,1.29
			c-0.388,0.614-0.807,1.227-1.291,1.839h14.745v2.646c-2.291,2.065-4.71,3.841-7.646,5.485
			C290.345,15.396,293.959,16.235,298.573,16.978 M282.924,18.107c-0.097,0.612-0.193,1.549-0.354,2.742h11.81
			c-0.097,1.064-0.613,6.518-0.775,7.807c-0.354,2.744-1.612,3.584-5.42,3.842l-2.969,0.225l-0.968-2.936l2.871-0.193
			c2.453-0.162,3.099-0.355,3.356-2.227c0.097-0.904,0.322-2.678,0.483-3.775h-8.905c-1.226,4.518-4,6.807-10.519,9.777
			l-1.839-2.744c5.55-2.129,7.97-3.969,9.002-7.033h-7.485V20.85h8.066c0.226-1.193,0.259-2.29,0.354-2.904L282.924,18.107z
			 M278.375,8.814c1.517,1.581,3.323,2.904,5.453,3.97c2.612-1.194,4.711-2.55,6.355-3.97H278.375z"/>
		<path fill="#FFFFFF" d="M329.582,22.818H317.16v9.68h-3.291v-9.68h-12.519v-3.227h12.519V8.267h-10.905V5.039h25.07v3.228H317.16
			v11.325h12.422V22.818z M306.449,9.396c1.387,1.903,3.807,5.26,5.193,7.324l-2.388,2c-1.388-2.162-3.903-5.808-5.194-7.518
			L306.449,9.396z M319.258,16.784c1.517-1.871,4.162-5.613,5.195-7.421l2.516,1.808c-1.097,1.773-3.678,5.581-5.227,7.484
			L319.258,16.784z"/>
		<path fill="#FFFFFF" d="M352.106,6.233c2.259,2.065,6.228,6.099,8.551,8.776l-2.065,2.388c-0.483-0.517-1.001-1.162-1.613-1.84
			c-3.581,0.129-18.037,0.581-22.425,0.968l-0.807-3.355c1.452-0.258,2.001-0.483,2.646-1c2.097-1.581,6.485-6.163,8.485-9.132
			l2.872,1.614c-2.162,2.937-5.614,6.711-7.551,8.195l13.843-0.452c-1.581-1.678-3.13-3.227-4.163-4.227L352.106,6.233z
			 M336.586,19.074h21.297v13.744h-3.292v-1.387h-14.745v1.387h-3.26V19.074z M339.846,28.398h14.745v-6.193h-14.745V28.398z"/>
	</g>
	<line fill="none" stroke="#FFFFFF" stroke-width="0.5" stroke-miterlimit="10" x1="132.37" y1="0.102" x2="132.37" y2="36.498"/>
</g>
</svg>
